<?xml version="1.0" encoding="UTF-8"?> <svg xmlns="http://www.w3.org/2000/svg" width="300" height="90" viewBox="0 0 300 90" fill="none"><path d="M109.333 74.357C109.549 74.357 110.198 74.357 110.63 74.357C111.278 74.357 111.71 74.5731 112.142 74.7891C112.358 75.0051 112.574 75.2211 112.574 75.6532C112.574 76.0853 112.142 76.5173 111.71 76.7333C112.142 76.9494 112.79 77.1654 112.79 78.0295C112.79 78.4616 112.574 78.8936 112.358 79.1097C111.926 79.5417 111.494 79.5417 110.63 79.5417C110.198 79.5417 109.765 79.5417 109.549 79.5417V74.357H109.333ZM109.981 76.5173H110.63C111.278 76.5173 111.71 76.0853 111.71 75.6532C111.71 75.0051 111.278 74.7891 110.63 74.7891C110.414 74.7891 110.198 74.7891 109.981 74.7891V76.5173ZM109.981 78.8936C110.198 78.8936 110.198 78.8936 110.63 78.8936C111.278 78.8936 111.926 78.6776 111.926 77.8135C111.926 77.1654 111.278 76.7333 110.63 76.7333H109.981V78.8936Z" fill="#152C48"></path><path d="M116.03 74.141V77.1654C116.03 78.2456 116.462 78.8936 117.326 78.8936C118.191 78.8936 118.623 78.4616 118.623 77.1654V74.141H119.271V77.1654C119.271 78.6776 118.407 79.3257 117.326 79.3257C116.246 79.3257 115.382 78.6776 115.382 77.1654V74.141H116.03Z" fill="#152C48"></path><path d="M122.079 78.6776C122.295 78.8936 122.727 79.1097 123.375 79.1097C124.023 79.1097 124.455 78.6776 124.455 78.2456C124.455 77.8135 124.239 77.3814 123.375 77.1654C122.511 76.9494 122.079 76.5173 122.079 75.6532C122.079 74.7891 122.727 74.141 123.807 74.141C124.239 74.141 124.671 74.357 124.887 74.357L124.671 75.0051C124.455 75.0051 124.239 74.7891 123.591 74.7891C122.943 74.7891 122.511 75.2211 122.511 75.6532C122.511 76.0853 122.727 76.3013 123.591 76.7333C124.455 77.1654 124.887 77.5975 124.887 78.2456C124.887 79.1097 124.239 79.7578 123.159 79.7578C122.727 79.7578 122.079 79.5417 121.863 79.3257L122.079 78.6776Z" fill="#152C48"></path><path d="M128.56 74.141H127.912V79.3257H128.56V74.141Z" fill="#152C48"></path><path d="M131.8 79.3257V74.141H132.448L134.177 76.7333C134.609 77.3814 134.825 77.8135 135.041 78.4616C135.041 77.8135 135.041 77.1654 135.041 76.3013V74.141H135.689V79.3257H135.041L133.313 76.7333C132.881 76.0853 132.664 75.6532 132.448 75.0051C132.448 75.6532 132.448 76.3013 132.448 77.1654V79.3257H131.8Z" fill="#152C48"></path><path d="M141.522 76.9494H139.361V78.8936H141.738V79.3257H138.713V74.141H141.522V74.7891H139.361V76.5173H141.522V76.9494Z" fill="#152C48"></path><path d="M144.33 78.6776C144.546 78.8936 144.978 79.1097 145.626 79.1097C146.274 79.1097 146.706 78.6776 146.706 78.2456C146.706 77.8135 146.49 77.3814 145.626 77.1654C144.762 76.9494 144.33 76.5173 144.33 75.6532C144.33 74.7891 144.978 74.141 146.058 74.141C146.49 74.141 146.922 74.357 147.138 74.357L146.922 75.0051C146.706 75.0051 146.49 74.7891 145.842 74.7891C145.194 74.7891 144.762 75.2211 144.762 75.6532C144.762 76.0853 144.978 76.3013 145.842 76.7333C146.706 77.1654 147.138 77.5975 147.138 78.2456C147.138 79.1097 146.49 79.7578 145.41 79.7578C144.978 79.7578 144.33 79.5417 144.114 79.3257L144.33 78.6776Z" fill="#152C48"></path><path d="M150.163 78.6776C150.379 78.8936 150.811 79.1097 151.459 79.1097C152.107 79.1097 152.539 78.6776 152.539 78.2456C152.539 77.8135 152.323 77.3814 151.459 77.1654C150.595 76.9494 150.163 76.5173 150.163 75.6532C150.163 74.7891 150.811 74.141 151.891 74.141C152.323 74.141 152.755 74.357 152.971 74.357L152.755 75.0051C152.539 75.0051 152.323 74.7891 151.675 74.7891C151.027 74.7891 150.595 75.2211 150.595 75.6532C150.595 76.0853 150.811 76.3013 151.675 76.7333C152.539 77.1654 152.971 77.5975 152.971 78.2456C152.971 79.1097 152.323 79.7578 151.243 79.7578C150.811 79.7578 150.163 79.5417 149.947 79.3257L150.163 78.6776Z" fill="#152C48"></path><path d="M159.452 74.357C159.668 74.357 160.1 74.357 160.748 74.357C161.396 74.357 161.828 74.5731 162.26 74.7891C162.476 75.0051 162.692 75.4372 162.692 75.8692C162.692 76.3013 162.476 76.7333 162.26 76.9494C161.828 77.3814 161.396 77.5975 160.748 77.5975C160.532 77.5975 160.316 77.5975 160.316 77.5975V79.7578H159.668V74.357H159.452ZM160.1 76.7333C160.316 76.7333 160.532 76.7333 160.748 76.7333C161.612 76.7333 162.044 76.3013 162.044 75.6532C162.044 75.0051 161.612 74.5731 160.748 74.5731C160.532 74.5731 160.316 74.5731 160.1 74.5731V76.7333Z" fill="#152C48"></path><path d="M165.501 74.357C165.933 74.357 166.365 74.141 166.797 74.141C167.445 74.141 167.877 74.357 168.309 74.5731C168.525 74.7891 168.741 75.2211 168.741 75.6532C168.741 76.3013 168.309 76.7333 167.661 76.9494C168.093 77.1654 168.309 77.3814 168.525 78.0295C168.741 78.6776 168.741 79.3257 168.957 79.5417H168.309C168.309 79.3257 168.093 78.8936 167.877 78.2456C167.661 77.5975 167.445 77.1654 166.797 77.1654H166.149V79.3257H165.501V74.357ZM166.797 76.7333C167.445 76.7333 167.877 76.3013 167.877 75.6532C167.877 75.0051 167.445 74.7891 166.581 74.7891C166.365 74.7891 165.933 74.7891 165.933 74.7891V76.7333H166.797Z" fill="#152C48"></path><path d="M176.086 76.7333C176.086 78.4616 175.006 79.5417 173.71 79.5417C172.414 79.5417 171.334 78.4616 171.334 76.9494C171.334 75.2211 172.414 74.141 173.71 74.141C175.222 74.141 176.086 75.2211 176.086 76.7333ZM171.982 76.9494C171.982 78.0295 172.63 79.1097 173.71 79.1097C174.79 79.1097 175.438 78.0295 175.438 76.9494C175.438 75.8692 175.006 74.7891 173.71 74.7891C172.63 74.7891 171.982 75.6532 171.982 76.9494Z" fill="#152C48"></path><path d="M182.567 79.3257C182.351 79.5417 181.919 79.5417 181.271 79.5417C179.759 79.5417 178.679 78.6776 178.679 76.9494C178.679 75.2211 179.759 74.141 181.487 74.141C182.135 74.141 182.567 74.357 182.783 74.357L182.567 75.0051C182.351 74.7891 181.919 74.7891 181.487 74.7891C180.191 74.7891 179.543 75.6532 179.543 76.9494C179.543 78.2455 180.191 79.1097 181.487 79.1097C181.919 79.1097 182.351 79.1097 182.567 78.8936V79.3257Z" fill="#152C48"></path><path d="M187.968 76.9494H185.807V78.8936H188.184V79.3257H185.159V74.141H187.968V74.7891H185.807V76.5173H187.968V76.9494Z" fill="#152C48"></path><path d="M190.776 78.6776C190.992 78.8936 191.424 79.1097 192.072 79.1097C192.72 79.1097 193.152 78.6776 193.152 78.2456C193.152 77.8135 192.936 77.3814 192.072 77.1654C191.208 76.9494 190.776 76.5173 190.776 75.6532C190.776 74.7891 191.424 74.141 192.504 74.141C192.936 74.141 193.368 74.357 193.585 74.357L193.368 75.0051C193.152 75.0051 192.936 74.7891 192.288 74.7891C191.64 74.7891 191.208 75.2211 191.208 75.6532C191.208 76.0853 191.424 76.3013 192.288 76.7333C193.152 77.1654 193.585 77.5975 193.585 78.2456C193.585 79.1097 192.936 79.7578 191.856 79.7578C191.424 79.7578 190.776 79.5417 190.56 79.3257L190.776 78.6776Z" fill="#152C48"></path><path d="M196.609 78.6776C196.825 78.8936 197.257 79.1097 197.905 79.1097C198.553 79.1097 198.985 78.6776 198.985 78.2456C198.985 77.8135 198.769 77.3814 197.905 77.1654C197.041 76.7334 196.609 76.3013 196.609 75.6532C196.609 74.7891 197.257 74.141 198.337 74.141C198.769 74.141 199.201 74.357 199.417 74.357L199.201 75.0051C198.985 75.0051 198.769 74.7891 198.121 74.7891C197.473 74.7891 197.041 75.2211 197.041 75.6532C197.041 76.0853 197.257 76.3013 198.121 76.7333C198.985 77.1654 199.417 77.5975 199.417 78.2456C199.417 79.1097 198.769 79.7578 197.689 79.7578C197.257 79.7578 196.609 79.5417 196.393 79.3257L196.609 78.6776Z" fill="#152C48"></path><path d="M217.348 76.7333C217.348 78.4616 216.268 79.5417 214.971 79.5417C213.675 79.5417 212.595 78.4616 212.595 76.9494C212.595 75.2211 213.675 74.141 214.971 74.141C216.484 74.141 217.348 75.2211 217.348 76.7333ZM213.243 76.9494C213.243 78.0295 213.891 79.1097 214.971 79.1097C216.051 79.1097 216.7 78.0295 216.7 76.9494C216.7 75.8692 216.268 74.7891 214.971 74.7891C213.891 74.7891 213.243 75.6532 213.243 76.9494Z" fill="#152C48"></path><path d="M220.804 74.141V77.1654C220.804 78.2456 221.236 78.8936 222.1 78.8936C222.964 78.8936 223.396 78.4616 223.396 77.1654V74.141H224.045V77.1654C224.045 78.6776 223.18 79.3257 222.1 79.3257C221.02 79.3257 220.156 78.6776 220.156 77.1654V74.141H220.804Z" fill="#152C48"></path><path d="M227.933 74.7891H226.421V74.141H230.309V74.7891H228.581V79.3257H227.933V74.7891Z" fill="#152C48"></path><path d="M232.686 78.6776C232.902 78.8936 233.334 79.1097 233.982 79.1097C234.63 79.1097 235.062 78.6776 235.062 78.2456C235.062 77.8135 234.846 77.3814 233.982 77.1654C233.118 76.9494 232.686 76.5173 232.686 75.6532C232.686 74.7891 233.334 74.141 234.414 74.141C234.846 74.141 235.278 74.357 235.494 74.357L235.278 75.0051C235.062 75.0051 234.846 74.7891 234.198 74.7891C233.55 74.7891 233.118 75.2211 233.118 75.6532C233.118 76.0853 233.334 76.3013 234.198 76.7333C235.062 77.1654 235.494 77.5975 235.494 78.2456C235.494 79.1097 234.846 79.7578 233.766 79.7578C233.334 79.7578 232.686 79.5417 232.47 79.3257L232.686 78.6776Z" fill="#152C48"></path><path d="M242.839 76.7333C242.839 78.4616 241.759 79.5417 240.463 79.5417C239.167 79.5417 238.086 78.4616 238.086 76.9494C238.086 75.2211 239.167 74.141 240.463 74.141C241.975 74.141 242.839 75.2211 242.839 76.7333ZM238.951 76.9494C238.951 78.0295 239.599 79.1097 240.679 79.1097C241.759 79.1097 242.407 78.0295 242.407 76.9494C242.407 75.8692 241.975 74.7891 240.679 74.7891C239.383 74.7891 238.951 75.6532 238.951 76.9494Z" fill="#152C48"></path><path d="M246.295 74.141V77.1654C246.295 78.2456 246.728 78.8936 247.592 78.8936C248.456 78.8936 248.888 78.4616 248.888 77.1654V74.141H249.536V77.1654C249.536 78.6776 248.672 79.3257 247.592 79.3257C246.512 79.3257 245.647 78.6776 245.647 77.1654V74.141H246.295Z" fill="#152C48"></path><path d="M252.56 74.357C252.992 74.357 253.424 74.141 253.856 74.141C254.505 74.141 254.937 74.357 255.369 74.5731C255.585 74.7891 255.801 75.2211 255.801 75.6532C255.801 76.3013 255.369 76.7333 254.721 76.9494C255.153 77.1654 255.369 77.3814 255.585 78.0295C255.801 78.6776 255.801 79.3257 256.017 79.5417H255.369C255.369 79.3257 255.153 78.8936 254.937 78.2456C254.721 77.5975 254.505 77.1654 253.856 77.1654H253.208V79.3257H252.56V74.357ZM253.856 76.7333C254.505 76.7333 254.937 76.3013 254.937 75.6532C254.937 75.0051 254.505 74.7891 253.64 74.7891C253.424 74.7891 252.992 74.7891 252.992 74.7891V76.7333H253.856Z" fill="#152C48"></path><path d="M262.282 79.3257C262.066 79.5417 261.634 79.5417 260.985 79.5417C259.473 79.5417 258.393 78.6776 258.393 76.9494C258.393 75.2211 259.473 74.141 261.201 74.141C261.85 74.141 262.282 74.357 262.498 74.357L262.282 75.0051C262.066 74.7891 261.634 74.7891 261.201 74.7891C259.905 74.7891 259.257 75.6532 259.257 76.9494C259.257 78.2455 259.905 79.1097 261.201 79.1097C261.634 79.1097 262.066 79.1097 262.282 78.8936V79.3257Z" fill="#152C48"></path><path d="M265.738 74.141H265.09V79.3257H265.738V74.141Z" fill="#152C48"></path><path d="M268.762 79.3257V74.141H269.411L271.139 76.7333C271.571 77.3814 271.787 77.8135 272.003 78.4616C272.003 77.8135 272.003 77.1654 272.003 76.3013V74.141H272.651V79.3257H272.003L270.275 76.7333C269.843 76.0853 269.627 75.6532 269.194 75.0051C269.194 75.6532 269.194 76.3013 269.194 77.1654V79.3257H268.762Z" fill="#152C48"></path><path d="M279.78 79.1097C279.564 79.3257 278.916 79.3257 278.268 79.3257C277.404 79.3257 276.756 79.1097 276.323 78.6776C275.891 78.2456 275.675 77.5975 275.675 76.7333C275.675 75.2211 276.756 74.141 278.484 74.141C279.132 74.141 279.564 74.357 279.78 74.357L279.564 75.0051C279.348 74.7891 278.916 74.7891 278.484 74.7891C277.188 74.7891 276.323 75.6532 276.323 76.9494C276.323 78.2455 277.188 79.1097 278.268 79.1097C278.7 79.1097 278.916 79.1097 279.132 78.8936V77.3814H278.052V76.9494H279.78V79.1097Z" fill="#152C48"></path><path d="M206.762 73.4929V76.3013H209.139V77.3814H206.762V80.1898H205.466V77.3814H202.874V76.3013H205.466V73.4929H206.762Z" fill="#152C48"></path><path d="M286.261 61.3953C287.341 61.3953 288.205 61.3953 288.853 61.1793C289.501 60.9633 290.149 60.7472 290.581 60.5312C291.013 60.3152 291.229 59.8831 291.445 59.4511C291.661 59.019 291.661 58.587 291.661 58.1549C291.661 57.0748 291.229 56.2106 290.149 55.3465C289.069 54.6984 287.341 53.8343 284.749 52.9702C283.668 52.5382 282.588 52.1061 281.508 51.674C280.428 51.242 279.348 50.5939 278.484 49.7298C277.62 48.8657 276.972 48.0016 276.323 46.9214C275.675 45.8413 275.459 44.5451 275.459 43.0329C275.459 41.5207 275.675 40.0085 276.323 38.9284C276.972 37.6322 277.62 36.552 278.7 35.6879C279.78 34.8238 281.076 34.1757 282.588 33.7437C284.1 33.3116 285.829 33.0956 287.773 33.0956C289.933 33.0956 291.877 33.3116 293.606 33.7437C295.334 34.1757 296.63 34.8238 297.71 35.2559L295.55 41.0886C294.686 40.6566 293.606 40.2245 292.526 39.7925C291.445 39.3604 289.933 39.1444 288.421 39.1444C286.693 39.1444 285.397 39.3604 284.533 39.7925C283.668 40.2245 283.452 41.0886 283.452 42.1688C283.452 42.8169 283.668 43.2489 283.884 43.681C284.1 44.113 284.533 44.5451 285.181 44.7611C285.613 45.1932 286.261 45.4092 287.125 45.6252C287.773 45.8413 288.637 46.2733 289.501 46.4894C291.229 47.1374 292.742 47.7855 294.038 48.4336C295.334 49.0817 296.414 49.7298 297.278 50.5939C298.142 51.458 298.79 52.3221 299.222 53.6183C299.655 54.6984 299.871 56.2106 299.871 57.7228C299.871 60.7472 298.79 63.3396 296.63 65.0678C294.47 66.796 291.229 67.6602 286.693 67.6602C285.181 67.6602 283.884 67.6602 282.588 67.4441C281.292 67.2281 280.428 67.0121 279.348 66.796C278.484 66.58 277.62 66.364 276.972 65.9319C276.323 65.7159 275.675 65.2838 275.243 65.0678L277.404 59.019C278.484 59.6671 279.564 60.0992 281.076 60.5312C282.372 61.1793 284.1 61.3953 286.261 61.3953Z" fill="#152C48"></path><path d="M270.491 57.0748C269.411 54.0504 268.33 51.026 267.25 48.4336C266.17 45.6252 265.09 43.2489 264.01 40.6566C262.93 38.2803 261.85 35.904 260.769 33.5276H253.64C252.56 35.904 251.48 38.2803 250.4 40.6566C249.32 43.0329 248.24 45.6252 247.16 48.4336C246.079 51.242 244.999 54.0504 243.919 57.0748C242.839 60.0992 241.543 63.5556 240.247 67.0121H248.024C248.456 65.9319 248.888 64.6358 249.104 63.3396C249.536 62.0434 249.968 60.9633 250.4 59.6671H263.362C263.794 60.9633 264.226 62.0434 264.658 63.3396C265.09 64.6358 265.522 65.7159 265.738 67.0121H273.515C272.651 63.3396 271.571 60.0992 270.491 57.0748ZM252.344 53.8343C252.776 52.3221 253.424 51.026 253.856 49.7298C254.289 48.4336 254.937 47.1374 255.153 46.0573C255.585 44.9772 256.017 43.897 256.233 43.2489C256.449 42.8169 256.449 42.3848 256.665 42.1688C256.665 41.7367 256.665 41.5207 256.881 41.0886C256.881 40.8726 257.097 40.8726 257.313 41.0886C257.313 41.5207 257.313 41.7367 257.529 42.1688C257.745 42.6008 257.745 42.8169 257.961 43.2489C258.393 44.113 258.609 44.9772 259.041 46.0573C259.473 47.1374 259.905 48.4336 260.337 49.7298C260.769 51.026 261.417 52.3221 261.85 53.8343H252.344Z" fill="#152C48"></path><path d="M221.02 53.8343C221.02 53.4023 221.02 53.1862 221.236 52.7542C221.884 51.242 222.532 49.7298 223.18 48.2176C224.045 46.2733 224.909 44.5451 225.557 42.6008C226.421 40.8726 227.069 39.1444 227.933 37.6322C228.797 36.12 229.445 34.8238 229.877 33.7437H236.79C237.006 35.904 237.438 38.4963 237.654 41.3047C237.87 44.113 238.086 46.9214 238.302 49.9458C238.518 52.9702 238.734 55.9946 238.951 58.803C239.167 61.8274 239.383 64.6358 239.383 67.2281H232.038C232.038 63.9877 231.822 60.5312 231.606 56.6427C231.39 52.7542 231.173 48.8657 230.957 44.9772C230.309 46.2733 229.661 47.7855 229.013 49.5138C228.365 51.242 227.501 52.7542 226.853 54.4824C226.205 56.2106 225.557 57.7228 224.909 59.235C224.261 60.7472 223.612 62.0434 223.18 63.1236H217.996C217.564 62.0434 216.916 60.7472 216.268 59.235C215.619 57.7228 214.971 56.2106 214.323 54.4824C213.675 52.7542 213.027 51.242 212.163 49.5138C211.515 47.7855 210.867 46.2733 210.219 44.9772C210.003 48.8657 209.571 52.7542 209.571 56.6427C209.355 60.5312 209.355 63.9877 209.139 67.2281H201.794C202.01 64.6358 202.01 61.8274 202.226 58.803C202.442 55.7786 202.658 52.7542 202.874 49.9458C203.09 46.9214 203.306 44.113 203.522 41.3047C203.738 38.4963 204.17 36.12 204.386 33.7437H211.731C212.379 34.8238 213.027 36.12 213.675 37.6322C214.539 39.1444 215.187 40.8726 216.051 42.6008C216.916 44.3291 217.78 46.2733 218.428 48.2176C219.076 49.9458 219.724 51.458 220.372 52.7542C220.372 53.1862 220.372 53.4023 220.588 53.8343C220.804 54.0504 221.02 54.0504 221.02 53.8343Z" fill="#152C48"></path><path d="M197.689 33.5276H190.128V67.0121H197.689V33.5276Z" fill="#152C48"></path><path d="M167.229 53.8343C167.229 53.4023 167.229 53.1862 167.445 52.7542C168.093 51.242 168.741 49.7298 169.389 48.2176C170.253 46.2733 170.902 44.5451 171.766 42.6008C172.63 40.8726 173.278 39.1444 174.142 37.6322C175.006 36.12 175.654 34.8238 176.086 33.7437H182.999C183.215 35.904 183.647 38.4963 183.863 41.3047C184.079 44.113 184.295 46.9214 184.511 49.9458C184.727 52.9702 184.943 55.9946 185.159 58.803C185.375 61.8274 185.591 64.6358 185.591 67.2281H178.246C178.246 63.9877 178.03 60.5312 177.814 56.6427C177.598 52.7542 177.382 48.8657 177.166 44.9772C176.518 46.2733 175.87 47.7855 175.222 49.5138C174.574 51.242 173.71 52.7542 173.062 54.4824C172.414 56.2106 171.766 57.7228 171.118 59.235C170.469 60.7472 169.821 62.0434 169.389 63.1236H164.205C163.773 62.0434 163.124 60.7472 162.476 59.235C161.828 57.7228 161.18 56.2106 160.532 54.4824C159.884 52.7542 159.236 51.242 158.372 49.5138C157.724 47.7855 157.076 46.2733 156.428 44.9772C156.212 48.8657 155.78 52.7542 155.78 56.6427C155.78 60.3152 155.563 63.7716 155.563 67.0121H148.219C148.435 64.4197 148.435 61.6114 148.651 58.587C148.867 55.5626 149.083 52.5382 149.299 49.7298C149.515 46.7054 149.731 43.897 149.947 41.0886C150.163 38.2803 150.595 35.904 150.811 33.5276H157.94C158.588 34.6078 159.236 35.904 159.884 37.4162C160.748 38.9284 161.396 40.6566 162.26 42.3848C163.124 44.113 163.989 46.0573 164.637 48.0016C165.285 49.7298 165.933 51.242 166.581 52.5382C166.581 52.9702 166.581 53.1862 166.797 53.6183C167.013 54.0504 167.229 54.0504 167.229 53.8343Z" fill="#152C48"></path><path d="M144.33 54.0504C144.33 61.6114 138.281 67.6602 130.72 67.6602C123.159 67.6602 117.11 61.6114 117.11 54.0504V33.5276H124.671V54.9145C124.671 58.3709 127.48 60.9633 130.936 60.9633C134.393 60.9633 137.201 58.1549 137.201 54.9145V33.5276H144.762V54.0504H144.33Z" fill="#152C48"></path><path d="M100.908 61.3953C101.988 61.3953 102.853 61.3953 103.501 61.1793C104.149 60.9633 104.797 60.7472 105.229 60.5312C105.661 60.3152 105.877 59.8831 106.093 59.4511C106.309 59.019 106.309 58.587 106.309 58.1549C106.309 57.0748 105.877 56.2106 104.797 55.3465C103.717 54.6984 101.988 53.8343 99.3961 52.9702C98.3159 52.5382 97.2358 52.1061 96.1557 51.674C95.0755 51.242 93.9954 50.5939 93.1312 49.7298C92.2671 48.8657 91.619 48.0016 90.971 46.9214C90.3229 45.8413 90.1069 44.5451 90.1069 43.0329C90.1069 41.5207 90.3229 40.0085 90.971 38.9284C91.619 37.6322 92.2671 36.552 93.3473 35.6879C94.4274 34.8238 95.7236 34.1757 97.2358 33.7437C98.748 33.3116 100.476 33.0956 102.42 33.0956C104.581 33.0956 106.525 33.3116 108.253 33.7437C109.981 34.1757 111.278 34.8238 112.358 35.2559L110.198 41.0886C109.333 40.6566 108.253 40.2245 107.173 39.7925C106.093 39.3604 104.581 39.1444 103.069 39.1444C101.34 39.1444 100.044 39.3604 99.1801 39.7925C98.3159 40.2245 98.0999 41.0886 98.0999 42.1688C98.0999 42.8169 98.3159 43.2489 98.532 43.681C98.748 44.113 99.1801 44.5451 99.8281 44.7611C100.26 45.1932 100.908 45.4092 101.772 45.6252C102.42 45.8413 103.285 46.2733 104.149 46.4894C105.877 47.1374 107.389 47.7855 108.685 48.4336C109.981 49.0817 111.062 49.7298 111.926 50.5939C112.79 51.458 113.438 52.3221 113.87 53.6183C114.302 54.6984 114.518 56.2106 114.518 57.7228C114.518 60.7472 113.438 63.3396 111.278 65.0678C109.117 66.796 105.877 67.6602 101.34 67.6602C99.8281 67.6602 98.532 67.6602 97.2358 67.4441C95.9396 67.2281 95.0755 67.0121 93.9954 66.796C93.1313 66.58 92.2671 66.364 91.6191 65.9319C90.971 65.7159 90.3229 65.2838 89.8908 65.0678L92.0511 59.019C93.1312 59.6671 94.2114 60.0992 95.7236 60.5312C97.0198 61.1793 98.748 61.3953 100.908 61.3953Z" fill="#152C48"></path><path d="M57.9186 50.5939C47.5492 38.2803 38.6921 28.1269 30.0509 35.4719C21.4098 42.8169 13.2007 67.8762 23.5701 80.1898C33.9394 92.5034 62.8873 92.2874 71.5284 84.7264C80.1695 77.3814 68.504 62.9075 57.9186 50.5939ZM60.943 81.0539C54.6782 86.4546 33.2914 86.6707 25.7304 77.5975C18.1694 68.5243 24.2182 50.3779 30.483 44.7611C36.7478 39.3604 43.4447 46.7054 51.0057 55.7786C58.5667 64.8518 67.2078 75.6532 60.943 81.0539Z" fill="#8ABD24"></path><path d="M76.065 21.8621C69.3681 12.5729 53.382 19.9178 34.8036 28.991C16.0091 38.0642 -5.59378 49.0817 1.31913 58.3709C8.01601 67.6602 43.2287 75.2211 62.0231 66.148C80.6016 56.8587 82.9779 30.9353 76.065 21.8621ZM60.727 63.1236C47.1172 69.8204 21.1938 64.2037 16.2251 57.5068C11.2564 50.8099 27.0265 42.8169 40.8523 36.12C54.4621 29.4231 66.1277 24.0224 71.0963 30.9353C76.065 37.4162 74.3368 56.4267 60.727 63.1236Z" fill="#5DC5ED"></path><path d="M65.4796 59.8831C63.9674 61.1793 62.4552 62.2594 60.727 63.1236C59.8629 63.5556 58.7827 63.9877 57.7026 64.4197C58.3507 65.2838 58.9987 66.364 59.6468 67.2281C60.5109 67.0121 61.3751 66.58 62.0231 66.148C63.9674 65.0678 65.9117 63.9877 67.6399 62.6915C66.9918 61.6114 66.1277 60.7472 65.4796 59.8831Z" fill="#80A41B"></path><path d="M22.4899 61.6114C22.0579 63.7716 22.0579 65.9319 22.0579 68.0922C20.9777 67.8762 19.6816 67.6602 18.6014 67.2281C18.3854 64.8518 18.6014 62.2594 18.8174 59.6671C20.1136 60.5312 21.1938 61.1793 22.4899 61.6114Z" fill="#80A41B"></path><path d="M23.354 45.1932C28.3227 41.9528 34.8036 38.7123 40.8523 35.6879C41.5004 35.4719 41.9325 35.0398 42.5806 34.8238C38.26 32.2315 34.1555 31.7994 30.267 35.2559C27.6746 37.6322 25.2983 41.0886 23.354 45.1932Z" fill="#80A41B"></path><path d="M22.922 7.60422C17.9533 14.3011 18.8174 24.0224 24.4342 22.0781C30.0509 20.3499 39.9882 6.95614 39.5562 2.20351C38.9081 -2.54912 27.8906 0.907341 22.922 7.60422Z" fill="#F39345"></path></svg> 